<svg width="124" height="124" viewBox="0 0 124 124" fill="none" xmlns="http://www.w3.org/2000/svg">
<circle cx="61.7475" cy="61.7061" r="44.3947" transform="rotate(-30.7656 61.7475 61.7061)" fill="white" stroke="#E84217"/>
<path d="M37.0086 68.4585L40.7516 66.2303C41.3702 65.862 42.0359 65.5844 42.7487 65.3976C43.4552 65.2004 44.1613 65.1431 44.8669 65.2259C45.5664 65.2982 46.2406 65.5393 46.8895 65.949C47.5323 66.3484 48.0961 66.9554 48.581 67.77C49.1519 68.729 49.5005 69.7015 49.6267 70.6878C49.7633 71.6678 49.6982 72.6143 49.4317 73.5271C49.1651 74.44 48.7166 75.2935 48.0861 76.0878C47.4496 76.8717 46.6518 77.5491 45.6929 78.12L41.5942 80.56L37.0086 68.4585ZM42.7806 77.5913L44.7758 76.4035C45.5388 75.9493 46.1354 75.4266 46.5655 74.8354C46.9956 74.2441 47.2787 73.6288 47.4146 72.9892C47.5548 72.3332 47.5663 71.6839 47.4492 71.0414C47.3259 70.3886 47.0924 69.7735 46.7486 69.1961C46.4908 68.763 46.1731 68.3935 45.7955 68.0876C45.4179 67.7817 44.9936 67.5734 44.5227 67.4627C44.0621 67.3459 43.5559 67.34 43.004 67.4451C42.4562 67.5338 41.873 67.7623 41.2544 68.1306L39.5685 69.1342L42.7806 77.5913ZM61.6521 68.6194L59.5022 69.8992L54.649 66.462L53.1951 67.3275L55.1715 72.4773L53.3 73.5914L48.7144 61.49L51.9625 59.5564C53.1689 58.8382 54.2473 58.5384 55.1977 58.6569C56.1522 58.759 56.8934 59.2534 57.4213 60.1402C57.9431 61.0166 58.1037 61.8846 57.9032 62.7442C57.7068 63.5873 57.2287 64.3677 56.4689 65.0854L61.6521 68.6194ZM53.9665 64.7526C54.8017 64.2554 55.3663 63.7377 55.6604 63.1995C55.9545 62.6613 55.9266 62.0984 55.5768 61.5106C55.2576 60.9744 54.8458 60.7168 54.3415 60.7377C53.8373 60.7586 53.2655 60.9593 52.6262 61.3399L51.2496 62.1594L52.5435 65.5997L53.9665 64.7526ZM70.1746 63.5458L68.2253 61.2917L63.5388 64.0816L63.4775 67.5327L61.2194 68.877L61.8461 53.6726L63.5011 52.6874L72.2008 62.3396L70.1746 63.5458ZM63.5248 55.6479L63.4909 61.8897L66.9864 59.8088L63.5248 55.6479ZM83.7274 55.4777L81.8714 56.5826L75.9401 48.9064L75.9091 48.9248L76.69 59.6672L74.834 60.7721L67.2943 50.4293L69.305 49.2323L74.6711 57.0146L74.702 56.9962L73.8368 46.5345L75.8165 45.3559L81.4919 52.9541L81.5228 52.9357L80.4875 42.5753L82.5136 41.3691L83.7274 55.4777Z" fill="#E84217"/>
</svg>
