<svg width="100" height="100" viewBox="0 0 100 100" fill="none" xmlns="http://www.w3.org/2000/svg">
<circle cx="50" cy="50" r="50" fill="white"/>
<path d="M20.72 41.84H25.58C26.4867 41.84 27.3933 41.9733 28.3 42.24C29.2067 42.5067 30.0267 42.9267 30.76 43.5C31.4933 44.0733 32.0867 44.8067 32.54 45.7C32.9933 46.5933 33.22 47.6667 33.22 48.92C33.22 50.1333 32.9933 51.1867 32.54 52.08C32.0867 52.96 31.4933 53.6933 30.76 54.28C30.0267 54.8533 29.2067 55.2867 28.3 55.58C27.3933 55.86 26.4867 56 25.58 56H20.72V41.84ZM22.7 54.26H25.18C26.0333 54.26 26.82 54.14 27.54 53.9C28.2733 53.66 28.9 53.3133 29.42 52.86C29.9533 52.4067 30.3667 51.8467 30.66 51.18C30.9533 50.5133 31.1 49.76 31.1 48.92C31.1 48.04 30.9533 47.2667 30.66 46.6C30.3667 45.9333 29.9533 45.38 29.42 44.94C28.9 44.4867 28.2733 44.1467 27.54 43.92C26.82 43.68 26.0333 43.56 25.18 43.56H22.7V54.26ZM37.9148 56H35.9348V41.84H40.4748C41.1548 41.84 41.8015 41.9133 42.4148 42.06C43.0282 42.1933 43.5615 42.4133 44.0148 42.72C44.4815 43.0267 44.8482 43.4333 45.1148 43.94C45.3815 44.4333 45.5148 45.04 45.5148 45.76C45.5148 46.8 45.1948 47.64 44.5548 48.28C43.9148 48.92 43.0882 49.3267 42.0748 49.5L46.0348 56H43.6348L40.0348 49.7H37.9148V56ZM37.9148 48.04H40.1948C40.6615 48.04 41.0948 48 41.4948 47.92C41.8948 47.84 42.2415 47.7133 42.5348 47.54C42.8415 47.3533 43.0815 47.12 43.2548 46.84C43.4282 46.5467 43.5148 46.1867 43.5148 45.76C43.5148 45.3333 43.4282 44.98 43.2548 44.7C43.0815 44.4067 42.8482 44.1733 42.5548 44C42.2748 43.8267 41.9415 43.7067 41.5548 43.64C41.1682 43.56 40.7615 43.52 40.3348 43.52H37.9148V48.04ZM48.8 56H46.6L52.74 41.84H54.54L60.62 56H58.38L56.94 52.52H50.22L48.8 56ZM50.92 50.78H56.22L53.58 44.14L50.92 50.78ZM65.9444 53.12H65.9844L69.3044 41.84H71.4844L74.7844 53.12H74.8244L77.9444 41.84H80.0444L75.8844 56H73.8244L70.3844 44.62H70.3444L66.9044 56H64.8444L60.6844 41.84H62.8244L65.9444 53.12Z" fill="black"/>
</svg>
